# xmcd
#
# Track frame offsets:
#	150
#	16154
#	28143
#	45661
#	62911
#	78580
#	92324
#	112844
#	129176
#	143674
#	157338
#	170495
#	186753
#	203195
#	220726
#	237843
#	254760
#	273058
#
# Disc length: 3845 seconds
#
# Revision: 0
# Processed by: cddbd v1.5.2PL0 Copyright (c) Steve Scherf et al.
# Submitted via: EasyCDDAExtractor 5.0.5.1
#
DISCID=f30f0312
DTITLE=Various Artist -  HOTT COUNTRY VOL 98
DYEAR=1900
DGENRE=Country
TTITLE0=Gretchen Wilson - REDNECK WOMAN
TTITLE1=Sean Hogan - CENTERED
TTITLE2=Chris Cummings - LUCY GOT LUCKY
TTITLE3=Adam Gregery - NEVER BE ANOTHER
TTITLE4=Natalie McMaster - APPROPRIATE DIPSTICK
TTITLE5=Gil Grand - BURNIN'
TTITLE6=Cross Canadian Ragweed - SICK AND TIRED
TTITLE7=Vince Gill - IN THESE LAST FEW DAYS
TTITLE8=Tracy Bird - HOW'D I WIND UP IN JAMAICA
TTITLE9=Pinmonkey - LET'S KILL SATURDAY NIGHT
TTITLE10=Scotty Emerick - THE COAST IS CLEAR
TTITLE11=The Jenkins - BLAME IT ON MAMA
TTITLE12=Rachel Proctor - ME AND EMILY
TTITLE13=Joe Nichols - IF NOBODY BELIEVED IN YOU
TTITLE14=Brad Paisley - Alison Krauss - WHISKEY LULLABY
TTITLE15=Billy Ray Cyrus - FACE OF GOD
TTITLE16=Leahy - CHASING RAIN
TTITLE17=Trent Willmon - BEER MAN
EXTD=September 2006\n
EXTT0=
EXTT1=
EXTT2=
EXTT3=
EXTT4=
EXTT5=
EXTT6=
EXTT7=
EXTT8=
EXTT9=
EXTT10=
EXTT11=
EXTT12=
EXTT13=
EXTT14=
EXTT15=
EXTT16=
EXTT17=
PLAYORDER=
